<svg id="Layer_1" data-name="Layer 1" xmlns="http://www.w3.org/2000/svg" viewBox="0 0 225.61 214.14"><path d="M122.18,136.24c0,8.71-.08,17.42,0,26.12,0,2.67-1,3.36-3.5,3.3-5.76-.16-11.54-.28-17.3,0-3,.14-4-.7-4-3.77.16-17,.13-34,.16-50.94,0-4.16,0-4.17-4.21-4.06-7.93.21-7.93.21-7.93-7.7,0-3.27.11-6.54,0-9.8-.09-2,.55-2.81,2.56-2.71,2.28.1,4.58,0,6.85.1s2.9-.73,2.85-2.85c-.1-4.24-.11-8.49,0-12.73C98,58,106.28,49.39,119.44,48.78c6-.28,12-.14,17.95-.31,2.1-.06,2.88.62,2.82,2.79-.14,4.79-.13,9.58,0,14.37.06,2.22-.53,3.16-2.94,3a70.73,70.73,0,0,0-8.49,0c-4.41.2-6.61,2.33-6.85,6.67-.17,2.93,0,5.88-.15,8.81-.1,2,.79,2.39,2.53,2.36,4.25-.09,8.5,0,12.74-.07,2,0,3,.42,2.75,2.75-.62,5.18-1.09,10.39-1.5,15.6-.14,1.8-.88,2.46-2.67,2.41-3.48-.09-7,.11-10.44-.09-2.44-.14-3.2.62-3.16,3.09.14,8.71,0,17.42,0,26.13Z" fill="#295395"/></svg>