<svg id="Layer_1" data-name="Layer 1" xmlns="http://www.w3.org/2000/svg" viewBox="0 0 231.58 234.53"><path d="M37.05,77.41a68.49,68.49,0,0,1,3.72-6.84A89.95,89.95,0,0,1,122,27.38a88.21,88.21,0,0,1,37.21,10.13,94.31,94.31,0,0,1,17.62,12c.35.31.16.42,0,.62L152.34,74.51c-.36.36-.74.7-1.07,1.09s-.41.27-.7,0a52.85,52.85,0,0,0-83.08,24.47c-.06.15-.12.3-.19.45-.14-.11-.3-.2-.44-.31L42,81.21C40.3,79.94,38.68,78.67,37.05,77.41Z" fill="#e94335"/><path d="M67.26,134a54.17,54.17,0,0,0,3.41,8A53.17,53.17,0,0,0,120,170.4a60.63,60.63,0,0,0,17.86-3.15,44.85,44.85,0,0,0,7-3.06c.94-.52,1.87-1.08,2.82-1.6l6.11,4.75,22.56,17.47a25.56,25.56,0,0,1-2.31,2.11,76.07,76.07,0,0,1-6.12,4.77,82.35,82.35,0,0,1-7.35,4.62q-3.37,1.88-6.91,3.45a86.41,86.41,0,0,1-9.71,3.61,91.13,91.13,0,0,1-9.75,2.38c-2.73.51-5.48.87-8.25,1.13-1.76.17-3.53.25-5.3.32a90.17,90.17,0,0,1-83.47-49.58c-.08-.16-.14-.33-.22-.5L59.35,140Z" fill="#34a753"/><path d="M176.42,184.83l-22.56-17.47-6.11-4.75a43.2,43.2,0,0,0,7-5.58,40.58,40.58,0,0,0,10.76-19c.17-.63.28-1.27.46-1.9.1-.38,0-.47-.37-.43H118.49c-.74,0-.64.08-.64-.62V101.46c0-.47.1-.59.58-.59h82.75c.42,0,.57.11.67.54a75.66,75.66,0,0,1,1.84,20.24,121.55,121.55,0,0,1-1.13,12.2,93.62,93.62,0,0,1-6.62,23.38,82.34,82.34,0,0,1-19,27.2A1.45,1.45,0,0,1,176.42,184.83Z" fill="#4284f3"/><path d="M67.26,134l-7.91,6L37,157.1a66.28,66.28,0,0,1-2.85-6.38,91,91,0,0,1,2.61-72.83c.08-.17.17-.32.26-.48,1.63,1.26,3.25,2.53,4.89,3.78l24.88,19c.14.11.3.2.44.31-.41,1.52-.89,3-1.24,4.57a53.93,53.93,0,0,0-1.27,15.82,53,53,0,0,0,2.49,12.91S67.25,133.92,67.26,134Z" fill="#fabb05"/></svg>