<svg id="Layer_1" data-name="Layer 1" xmlns="http://www.w3.org/2000/svg" viewBox="0 0 409.59 400"><path d="M353.35,208.35c-.47,82.82-66.61,150.44-150.77,150.23-85.84-.21-150.82-69.72-150.25-151.38a150.51,150.51,0,0,1,301,1.15ZM203.1,72.41c-74.53,0-135.41,60.79-135.33,135.36a135.36,135.36,0,0,0,270.71.16C338.51,133.17,277.82,72.42,203.1,72.41Z" fill="#08fc05"/><path d="M203.1,72.41c74.72,0,135.41,60.76,135.38,135.52a135.36,135.36,0,0,1-270.71-.16C67.69,133.2,128.57,72.4,203.1,72.41ZM203,331A123.3,123.3,0,0,0,326.3,208.33c.56-67.41-54.5-123.3-122.48-123.59A123,123,0,0,0,80,206.73C79.34,275,134.11,330.38,203,331Z" fill="#fdfefd"/><path d="M203,331C134.11,330.38,79.34,275,80,206.73a123,123,0,0,1,123.8-122c68,.29,123,56.18,122.48,123.59A123.3,123.3,0,0,1,203,331ZM185.3,264.52c.87-.14,1.43-.89,2.08-1.52,29-28.2,57.36-57.05,86-85.57,2.21-2.2,2.18-3.21-.09-5.49q-9.49-9.51-19-19c-2.38-2.38-2.69-2.38-5.1,0q-31,31-62,62c-1.72,1.72-2.53,1.47-4.1-.05-9.24-8.89-18.59-17.67-27.92-26.48-2.15-2-3.26-2-5.38.13q-9.59,9.72-19.15,19.48c-1.89,1.94-1.88,2.7,0,4.53,17.62,16.71,35.34,33.32,52.3,50.71A3.38,3.38,0,0,0,185.3,264.52Z" fill="#05fe01"/><path d="M185.3,264.52a3.38,3.38,0,0,1-2.25-1.2c-17-17.39-34.68-34-52.3-50.71-1.92-1.83-1.93-2.59,0-4.53q9.56-9.77,19.15-19.48c2.12-2.15,3.23-2.17,5.38-.13,9.33,8.81,18.68,17.59,27.92,26.48,1.57,1.52,2.38,1.77,4.1.05q30.88-31.11,62-62c2.41-2.41,2.72-2.41,5.1,0q9.5,9.5,19,19c2.27,2.28,2.3,3.29.09,5.49-28.68,28.52-57.05,57.37-86,85.57C186.73,263.63,186.17,264.38,185.3,264.52Z" fill="#fdfefd"/></svg>